# xmcd
#
# Track frame offsets:
#	183
#	12858
#	27378
#	42953
#	61085
#	77820
#	92365
#	109000
#	124003
#	141020
#	158258
#	172638
#
# Disc length: 2483 seconds
#
# Revision: 0
# Processed by: cddbd v1.4PL0 Copyright (c) Steve Scherf et al.
# Submitted via: EasyCDDAExtractor 5.0.2.1
#
DISCID=7d09b10c
DTITLE=Gunter Gabriel - Hier ist mein Land
DYEAR=1995
DGENRE=Country
TTITLE0=Hier ist mein Land
TTITLE1=Deutschland ist...
TTITLE2=Alle M‰dchen ab 30
TTITLE3=Das bringst nur du
TTITLE4=Mann mit der Fackel
TTITLE5=Hallo Dortmund
TTITLE6=Deutsches Laster - gutes Laster
TTITLE7=Sohn aus dem Volk
TTITLE8=Die Fahrer
TTITLE9=Nicotin - Coffein - Asperin
TTITLE10=Gefangene der Straﬂe
TTITLE11=Ohne Moos nichts los
EXTD=
EXTT0=
EXTT1=
EXTT2=
EXTT3=
EXTT4=
EXTT5=
EXTT6=
EXTT7=
EXTT8=
EXTT9=
EXTT10=
EXTT11=
PLAYORDER=
